{"accessors":[{"bufferView":0,"byteOffset":0,"componentType":5126,"count":376,"max":[67.30595159530641,216.23076663247744,127.16215680124762],"min":[-67.30594491958618,-216.23076554883255,-127.16215346810797],"type":"VEC3"},{"bufferView":0,"byteOffset":4512,"componentType":5126,"count":376,"max":[1.0,0.8472514161375729,0.7951070182000762],"min":[-1.0,-0.92861408379955,-0.982165455005879],"type":"VEC3"},{"bufferView":0,"byteOffset":9024,"componentType":5126,"count":376,"max":[0.956818222999573,0.9956954172812402],"min":[0.0219330489635468,0.0033296942710879796],"type":"VEC2"},{"bufferView":1,"byteOffset":0,"componentType":5123,"count":2148,"max":[375],"min":[0],"type":"SCALAR"}],"asset":{"generator":"ClayGL - fbx2gltf","version":"2.0"},"bufferViews":[{"buffer":0,"byteLength":12032,"byteOffset":0,"target":34962},{"buffer":0,"byteLength":4296,"byteOffset":12032,"target":34963}],"buffers":[{"byteLength":16328,"uri":"TropicalFish12.bin"}],"images":[{"uri":"TropicalFish12.jpg"}],"materials":[{"emissiveFactor":[0.0,0.0,0.0],"name":"12 - Default","pbrMetallicRoughness":{"baseColorFactor":[1,1,1,1],"baseColorTexture":{"index":0,"texCoord":0},"metallicFactor":0,"roughnessFactor":1}}],"meshes":[{"name":"TropicalFish12","primitives":[{"attributes":{"NORMAL":1,"POSITION":0,"TEXCOORD_0":2},"indices":3,"material":0}]}],"nodes":[{"matrix":[0.9999999999999996,-2.9802322387695346e-08,-1.8248659359624307e-24,0.0,7.346839692639297e-40,6.123233995736769e-17,-1.0,0.0,2.9802322387695346e-08,0.9999999999999996,6.123233995736766e-17,0.0,0.0,0.0,0.0,1.0],"mesh":0,"name":"TropicalFish12"}],"samplers":[{"magFilter":9729,"minFilter":9987,"wrapS":10497,"wrapT":10497}],"scene":0,"scenes":[{"nodes":[0]}],"textures":[{"format":6408,"internalFormat":6408,"sampler":0,"source":0,"target":3553}]}