{"accessors":[{"bufferView":0,"byteOffset":0,"componentType":5126,"count":260,"max":[82.31035566329959,228.41704721069235,117.45406861333414],"min":[-82.31035661697392,-228.41704625841945,-117.45406462692607],"type":"VEC3"},{"bufferView":0,"byteOffset":3120,"componentType":5126,"count":260,"max":[0.99927830696106,0.9360229868578506,0.8453567540179183],"min":[-0.99927830696106,-0.8628725960368404,-0.9345183390447438],"type":"VEC3"},{"bufferView":0,"byteOffset":6240,"componentType":5126,"count":260,"max":[0.919912576675415,0.890539966523647],"min":[0.0210950672626495,0.328401863574982],"type":"VEC2"},{"bufferView":1,"byteOffset":0,"componentType":5123,"count":1428,"max":[259],"min":[0],"type":"SCALAR"}],"asset":{"generator":"ClayGL - fbx2gltf","version":"2.0"},"bufferViews":[{"buffer":0,"byteLength":8320,"byteOffset":0,"target":34962},{"buffer":0,"byteLength":2856,"byteOffset":8320,"target":34963}],"buffers":[{"byteLength":11176,"uri":"TropicalFish02.bin"}],"images":[{"uri":"TropicalFish02.jpg"}],"materials":[{"emissiveFactor":[0.0,0.0,0.0],"name":"02 - Default","pbrMetallicRoughness":{"baseColorFactor":[1,1,1,1],"baseColorTexture":{"index":0,"texCoord":0},"metallicFactor":0,"roughnessFactor":1}}],"meshes":[{"name":"TropicalFish02","primitives":[{"attributes":{"NORMAL":1,"POSITION":0,"TEXCOORD_0":2},"indices":3,"material":0}]}],"nodes":[{"matrix":[0.9999999999999996,-2.9802322387695346e-08,-1.8248659359624307e-24,0.0,7.346839692639297e-40,6.123233995736769e-17,-1.0,0.0,2.9802322387695346e-08,0.9999999999999996,6.123233995736766e-17,0.0,0.0,0.0,0.0,1.0],"mesh":0,"name":"TropicalFish02"}],"samplers":[{"magFilter":9729,"minFilter":9987,"wrapS":10497,"wrapT":10497}],"scene":0,"scenes":[{"nodes":[0]}],"textures":[{"format":6408,"internalFormat":6408,"sampler":0,"source":0,"target":3553}]}