{"accessors":[{"bufferView":0,"byteOffset":0,"componentType":5126,"count":363,"max":[67.0986518859868,227.45730590820398,144.63347244262667],"min":[-67.098690032959,-227.45730590820298,-144.63346481323234],"type":"VEC3"},{"bufferView":0,"byteOffset":4356,"componentType":5126,"count":363,"max":[1.0,0.853224635124207,0.985211908817291],"min":[-1.0,-0.9953253865242,-0.783285319805145],"type":"VEC3"},{"bufferView":0,"byteOffset":8712,"componentType":5126,"count":363,"max":[0.959515511989594,0.9063421413302422],"min":[0.0655519366264343,0.22969269752502397],"type":"VEC2"},{"bufferView":1,"byteOffset":0,"componentType":5123,"count":1548,"max":[362],"min":[0],"type":"SCALAR"}],"asset":{"generator":"ClayGL - fbx2gltf","version":"2.0"},"bufferViews":[{"buffer":0,"byteLength":11616,"byteOffset":0,"target":34962},{"buffer":0,"byteLength":3096,"byteOffset":11616,"target":34963}],"buffers":[{"byteLength":14712,"uri":"TropicalFish01.bin"}],"images":[{"uri":"TropicalFish01.jpg"}],"materials":[{"emissiveFactor":[0.0,0.0,0.0],"name":"01 - Default","pbrMetallicRoughness":{"baseColorFactor":[1,1,1,1],"baseColorTexture":{"index":0,"texCoord":0},"metallicFactor":0,"roughnessFactor":1}}],"meshes":[{"name":"TropicalFish01","primitives":[{"attributes":{"NORMAL":1,"POSITION":0,"TEXCOORD_0":2},"indices":3,"material":0}]}],"nodes":[{"matrix":[-0.9999999999999962,5.3531011751640525e-24,-8.742277657347555e-08,0.0,-8.742277657347547e-08,2.0350299239618644e-07,0.9999999999999954,0.0,-1.7790796641638598e-14,-0.9999999999999992,2.0350299239618568e-07,0.0,0.0,0.0,0.0,1.0],"mesh":0,"name":"TropicalFish01"}],"samplers":[{"magFilter":9729,"minFilter":9987,"wrapS":10497,"wrapT":10497}],"scene":0,"scenes":[{"nodes":[0]}],"textures":[{"format":6408,"internalFormat":6408,"sampler":0,"source":0,"target":3553}]}